User Type,Username,Date,Text
,runnaky,2012-08-20T16:16Z,"Format                           : AVI
Format/Info                      : Audio Video Interleave
File size                        : 977 MiB
Duration                         : 1h 30mn
Overall bit rate                 : 1 508 Kbps

Video
ID                               : 0
Format                           : MPEG-4 Visual
Format profile                   : Advanced Simple@L5
Format settings, BVOP            : 2
Format settings, QPel            : No
Format settings, GMC             : No warppoints
Format settings, Matrix          : Default (H.263)
Muxing mode                      : Packed bitstream
Codec ID                         : XVID
Codec ID/Hint                    : XviD
Duration                         : 1h 30mn
Bit rate                         : 1 368 Kbps
Width                            : 720 pixels
Height                           : 272 pixels
Display aspect ratio             : 2.647
Frame rate                       : 29.970 fps
Color space                      : YUV
Chroma subsampling               : 4:2:0
Bit depth                        : 8 bits
Scan type                        : Progressive
Compression mode                 : Lossy
Bits/(Pixel*Frame)               : 0.233
Stream size                      : 886 MiB (91%)
Writing library                  : XviD 64

Audio
ID                               : 1
Format                           : MPEG Audio
Format version                   : Version 1
Format profile                   : Layer 3
Mode                             : Joint stereo
Mode extension                   : MS Stereo
Codec ID                         : 55
Codec ID/Hint                    : MP3
Duration                         : 1h 30mn
Bit rate mode                    : Constant
Bit rate                         : 128 Kbps
Channel(s)                       : 2 channels
Sampling rate                    : 48.0 KHz
Compression mode                 : Lossy
Stream size                      : 82.9 MiB (8%)
Alignment                        : Split accross interleaves
Interleave, duration             : 33 ms (1.00 video frame)
Interleave, preload duration     : 500 ms

___     _                    ___                 _      _   _          
| _ ___| |___ __ _ ___ ___  |    ___ ___ __ _ _(_)_ __| |_(_)___ _ _  
|   / -_) / -_) _` (_-"
,runnaky,2012-08-20T16:16Z,"Encoder: SMiLE :D

Source:
INSPiRAL (Cheers!)

Notes:
Not bad for a first release. Video has a slight flicker and quite a bit of movement so take note of
that. Took the source, tweaked it, filtered it, made the colours a little richer, dropped the file
size and here we go. Video: 7 - Audio: 8 - My honest A/V rating. Sample included. Enjoy. :P"
,zeenan99,2012-08-29T06:03Z,will comment after i d/l
